<?xml version="1.0" encoding="UTF-8" standalone="no"?>
<svg
   version="1.1"
   id="Layer_1"
   x="0px"
   y="0px"
   width="100%"
   viewBox="0 0 1024 1024"
   enable-background="new 0 0 1024 1024"
   xml:space="preserve"
   sodipodi:docname="logos.svg"
   inkscape:version="1.4.2 (f4327f4, 2025-05-13)"
   xmlns:inkscape="http://www.inkscape.org/namespaces/inkscape"
   xmlns:sodipodi="http://sodipodi.sourceforge.net/DTD/sodipodi-0.dtd"
   xmlns="http://www.w3.org/2000/svg"
   xmlns:svg="http://www.w3.org/2000/svg"><defs
   id="defs18" /><sodipodi:namedview
   id="namedview18"
   pagecolor="#505050"
   bordercolor="#ffffff"
   borderopacity="1"
   inkscape:showpageshadow="0"
   inkscape:pageopacity="0"
   inkscape:pagecheckerboard="1"
   inkscape:deskcolor="#505050"
   inkscape:zoom="0.96"
   inkscape:cx="511.97917"
   inkscape:cy="288.02083"
   inkscape:window-width="1440"
   inkscape:window-height="847"
   inkscape:window-x="-8"
   inkscape:window-y="22"
   inkscape:window-maximized="1"
   inkscape:current-layer="Layer_1" />

<path
   fill="#01FF01"
   opacity="1.000000"
   stroke="none"
   d=" M287.221222,305.525757   C287.292389,317.277832 287.419891,329.029907 287.422882,340.781982   C287.429077,365.113251 287.390747,389.444580 287.306854,413.775696   C287.297150,416.589844 287.283356,419.507294 286.580444,422.196228   C284.545837,429.979523 278.980774,433.708221 271.026703,433.059204   C264.787659,432.550140 259.804779,426.793823 259.032928,419.158630   C258.932770,418.167786 258.986053,417.160339 258.985962,416.160583   C258.981506,360.331055 258.967987,304.501556 258.985809,248.672028   C258.989197,238.073227 265.117554,232.056732 274.895508,232.965393   C279.859436,233.426682 283.009979,236.474319 285.188873,240.651489   C299.509399,268.105286 313.932617,295.506775 328.048004,323.065857   C338.238800,342.962616 348.004639,363.077026 357.966217,383.091248   C358.248779,383.658936 358.602417,384.191254 359.304077,385.392853   C367.030487,370.234863 374.490814,355.591187 381.957947,340.951019   C398.951965,307.632416 415.935394,274.308411 432.956787,241.003845   C436.435242,234.197815 441.129120,231.477356 447.615967,232.259644   C453.331512,232.948883 458.112183,237.058884 459.542114,242.779388   C459.977783,244.522339 459.986694,246.402039 459.987579,248.219223   C460.014343,304.215302 460.020386,360.211395 460.015778,416.207489   C460.015137,423.764252 456.155151,429.851868 450.122589,431.956940   C439.998962,435.489716 431.107666,428.631866 431.064880,417.004486   C430.972321,391.839905 431.034363,366.674713 431.033508,341.509796   C431.033112,329.552124 431.033447,317.594452 430.017883,305.221222   C426.336029,312.280151 422.514435,319.270172 418.996429,326.409821   C403.557922,357.742096 388.296326,389.162048 372.709686,420.420105   C370.800995,424.247894 367.947479,428.308044 364.431396,430.475037   C358.301025,434.253204 351.778229,431.214600 348.185516,424.055664   C334.753876,397.291473 321.468323,370.453186 307.892761,343.762329   C301.439972,331.075470 294.457306,318.658173 287.242432,305.884247   C286.748840,305.800995 286.727478,305.952271 286.706146,306.103516   C286.877838,305.910919 287.049530,305.718323 287.221222,305.525757  z"
   id="path2" />
<path
   fill="#02FF02"
   opacity="1.000000"
   stroke="none"
   d=" M470.920654,674.112610   C438.035065,658.319153 420.986664,631.552856 415.943726,596.634460   C411.276855,564.320496 419.332336,535.155518 440.995544,510.676453   C459.839294,489.383362 484.819885,481.259491 512.750305,480.765411   C542.337280,480.242065 568.110840,489.105530 588.018921,511.645264   C602.556458,528.104492 610.927307,547.574951 613.038452,569.508911   C616.144653,601.781189 607.013184,630.132385 584.886475,654.409302   C589.457886,657.520569 593.835510,660.435120 598.144348,663.448242   C604.230225,667.703918 605.818848,674.212769 602.236633,679.869202   C598.753845,685.368652 591.064270,687.191650 585.074158,683.492676   C579.430481,680.007629 574.019531,676.128845 568.647217,672.228943   C566.126892,670.399414 564.279297,670.157715 561.173950,671.679382   C531.657898,686.143494 501.633148,687.027222 470.920654,674.112610  M553.807922,517.629272   C523.062561,499.415924 481.398163,505.095642 459.507843,530.484314   C435.456055,558.379822 434.836060,600.863037 457.753296,630.095520   C480.216431,658.748657 517.021423,662.079041 540.505798,651.825684   C539.838806,651.482605 539.377075,651.316467 538.996582,651.038940   C532.025330,645.951782 524.837097,641.127014 518.180542,635.655823   C513.800842,632.056030 513.295471,626.313965 515.850220,621.663025   C518.392151,617.035583 523.110901,614.677002 528.532532,616.146423   C531.471436,616.942932 534.236816,618.740967 536.799805,620.496704   C545.408630,626.394226 553.891479,632.475647 562.341675,638.429749   C595.418518,611.825500 597.600037,546.711121 553.807922,517.629272  z"
   id="path3" />
<path
   fill="#01FF01"
   opacity="1.000000"
   stroke="none"
   d=" M940.959717,311.566895   C928.773315,313.243622 923.133362,310.915375 919.956970,302.692688   C918.981873,300.168579 918.879150,297.193604 918.876404,294.424561   C918.818665,236.099304 918.897461,177.773880 918.799500,119.448730   C918.761963,97.096321 906.096130,81.094711 884.685242,76.566650   C878.562012,75.271683 872.120117,75.079613 865.823425,75.070831   C796.332947,74.973854 726.842224,75.004982 657.351624,75.027184   C650.284668,75.029442 645.313171,71.654892 642.267090,65.545731   C639.574463,60.145664 640.882507,53.247494 645.128723,48.889786   C648.965942,44.951874 653.751587,43.848259 659.188293,43.858418   C714.680664,43.962105 770.173340,43.927376 825.665894,43.934643   C842.830261,43.936890 859.995239,43.857117 877.158875,43.975212   C918.151978,44.257271 951.036804,77.483864 951.019226,118.440331   C950.993896,177.432526 950.993347,236.424713 951.017822,295.416901   C951.020813,302.763397 948.095215,308.195404 940.959717,311.566895  z"
   id="path4" />
<path
   fill="#01FF01"
   opacity="1.000000"
   stroke="none"
   d=" M325.999207,43.933968   C331.165161,43.932106 335.831879,43.882420 340.497314,43.938644   C349.891266,44.051849 356.574341,50.662582 356.705444,59.902737   C356.826294,68.420822 349.723511,75.012283 340.416077,75.011993   C276.423187,75.009995 212.429459,74.843170 148.438400,75.181686   C138.950668,75.231873 129.101318,76.457428 120.075035,79.255013   C103.002472,84.546448 94.754517,98.081963 94.207123,115.121887   C93.201736,146.418823 93.444626,177.757935 93.306396,209.080063   C93.178429,238.076279 93.310249,267.073700 93.166336,296.069733   C93.112457,306.924927 86.333725,313.016022 75.660927,312.336517   C68.528496,311.882416 62.565727,306.166260 62.004009,298.911438   C61.696037,294.933838 61.817684,290.919495 61.821537,286.921753   C61.875492,230.928253 61.865997,174.934494 62.048634,118.941376   C62.111191,99.763802 67.408432,82.426277 80.453156,67.691216   C92.322182,54.284210 107.415421,46.465763 124.634636,45.317364   C149.846375,43.635918 175.212265,44.076225 200.513916,43.975121   C242.175125,43.808643 283.837494,43.932552 325.999207,43.933968  z"
   id="path5" />
<path
   fill="#01FF01"
   opacity="1.000000"
   stroke="none"
   d=" M951.330322,732.000122   C951.284363,759.486389 951.379456,786.473999 951.138428,813.458496   C950.985413,830.585693 948.229431,847.387939 938.756775,861.958923   C925.405518,882.496155 906.814148,895.383057 881.649536,897.088440   C875.013428,897.538147 868.358459,897.958801 861.711731,897.964966   C793.744568,898.028076 725.777405,897.979004 657.810242,898.039978   C651.122070,898.045959 646.267517,895.273010 643.225525,889.482422   C640.315491,883.943115 640.197815,878.300476 643.818237,872.957886   C647.569397,867.422485 653.246399,866.014709 659.488037,866.013916   C700.468079,866.008728 741.448181,866.018005 782.428223,866.009888   C813.079712,866.003784 843.733765,866.214722 874.381836,865.881958   C896.208984,865.645020 911.325745,853.644043 916.453735,832.675659   C918.094299,825.967529 918.747192,818.870178 918.791931,811.944031   C919.041504,773.297729 918.953430,734.649231 919.011536,696.001526   C919.023193,688.228638 924.267700,681.109863 930.668579,679.977478   C939.960388,678.333618 947.763428,682.233215 950.409729,690.156738   C951.178528,692.458435 951.298706,695.053040 951.316467,697.516296   C951.398010,708.843628 951.338196,720.172058 951.330322,732.000122  z"
   id="path6" />
<path
   fill="#01FF01"
   opacity="1.000000"
   stroke="none"
   d=" M92.974922,756.000000   C92.989548,775.499207 92.596703,794.511658 93.211098,813.491455   C93.470306,821.498779 94.804390,829.809998 97.478745,837.332947   C103.877518,855.332703 120.511070,865.905823 141.106873,865.968689   C185.604568,866.104492 230.102829,866.054993 274.600861,866.080627   C294.933319,866.092346 315.265930,866.073059 335.598145,866.148071   C338.406494,866.158386 341.271606,866.358582 344.009674,866.942932   C352.417786,868.737427 356.969391,875.381653 356.101624,884.218079   C355.331757,892.057556 349.126404,897.937744 341.065979,897.944580   C275.568573,897.999756 210.070099,898.179260 144.574158,897.862793   C120.911110,897.748535 99.396935,891.166138 82.582306,873.142639   C71.408112,861.165222 64.692886,846.847900 63.267612,830.899597   C61.656971,812.876892 61.924839,794.666870 61.799694,776.535400   C61.612209,749.371521 61.761261,722.204956 61.837452,695.039795   C61.864040,685.558716 67.631241,680.337891 76.982964,679.772217   C86.967522,679.168213 93.031822,687.536194 92.991066,695.002014   C92.880974,715.167419 92.966614,735.333923 92.974922,756.000000  z"
   id="path7" />
<path
   fill="#02FF02"
   opacity="1.000000"
   stroke="none"
   d=" M398.144287,645.063660   C392.192291,665.374084 377.583160,676.096313 358.381531,679.377197   C337.387726,682.964233 315.790192,683.304871 294.865479,678.847961   C271.018768,673.768494 260.956604,656.943726 258.088470,636.017456   C257.323730,630.437805 257.014435,624.713013 257.293121,619.094482   C257.618042,612.545349 262.195862,607.457764 267.125641,606.989136   C274.022308,606.333435 280.104736,609.686646 281.603821,615.642395   C282.567688,619.471802 282.499054,623.557800 282.938904,627.523682   C283.230682,630.154053 283.524445,632.788330 283.953125,635.398560   C285.808899,646.697693 292.543060,654.581970 303.637451,655.382629   C320.007751,656.564026 336.596313,656.413879 352.975647,655.226501   C365.447540,654.322388 373.135101,645.951050 374.342682,633.415833   C375.113586,625.413818 374.988586,617.032043 373.456970,609.172974   C371.351624,598.369812 362.771179,593.356140 349.149261,593.015869   C334.828339,592.658203 320.503540,592.419556 306.186768,591.939941   C288.994354,591.364075 274.463928,585.243774 264.310944,570.764893   C258.906189,563.057373 256.861725,554.132629 256.472290,544.924744   C255.940948,532.361389 257.174774,520.008545 263.813385,508.885040   C271.970245,495.217529 284.819763,488.154083 299.852661,485.477783   C319.115143,482.048553 338.581970,481.871704 357.932098,485.408508   C379.675110,489.382721 391.838257,503.053864 395.849854,524.199890   C397.295135,531.818176 397.643036,539.696350 397.889587,547.475037   C398.113953,554.554504 393.108978,558.992554 385.832062,559.054321   C378.766693,559.114319 373.371918,554.086548 372.910522,547.351562   C372.480682,541.077332 372.091095,534.764771 371.047974,528.576233   C369.340302,518.445557 362.803711,511.927124 352.996765,510.502716   C336.521240,508.109802 319.737671,507.060913 303.389008,511.055176   C284.211670,515.740479 275.080719,536.807739 284.043762,554.427185   C288.375092,562.941589 296.071259,566.595093 305.265564,566.946167   C319.412292,567.486206 333.587402,567.389038 347.720764,568.129517   C355.292877,568.526184 363.129303,569.088196 370.271118,571.373535   C383.965118,575.755615 392.640747,585.854248 397.029175,599.449890   C401.843689,614.365540 401.792053,629.487793 398.144287,645.063660  z"
   id="path8" />
<path
   fill="#02FF02"
   opacity="1.000000"
   stroke="none"
   d=" M607.097351,234.038483   C639.359802,222.540100 670.910095,221.039673 700.809265,239.355331   C708.980164,244.360641 715.812256,251.915344 722.339722,259.131439   C728.217896,265.629700 727.120422,274.562378 721.160278,279.643829   C714.869385,285.007263 706.565308,284.368622 700.268494,277.725220   C690.462463,267.379364 679.403076,259.514343 664.955261,256.802094   C625.824524,249.456207 588.087341,272.902710 577.518005,311.451630   C566.877808,350.258972 589.544006,392.152740 628.010193,403.651886   C655.235046,411.790436 679.815186,406.173126 701.242615,387.276123   C707.574524,381.691925 714.988586,381.157593 720.679382,385.600769   C727.460022,390.894806 728.043274,399.607605 721.744385,406.634125   C711.713501,417.823792 699.828064,426.388306 685.511536,431.375519   C633.372864,449.537994 564.906189,422.678650 549.761841,361.214844   C540.340393,322.977417 545.760376,286.920410 573.525818,256.597626   C582.771362,246.500473 594.302185,239.618683 607.097351,234.038483  z"
   id="path9" />
<path
   fill="#03FF03"
   opacity="1.000000"
   stroke="none"
   d=" M676.999878,681.658142   C668.503235,681.646301 660.506531,681.626099 652.509888,681.624878   C636.548279,681.622375 632.670959,677.884460 632.650818,662.026428   C632.599609,621.709412 632.624939,581.392212 632.627930,541.075134   C632.628967,527.747314 632.562561,514.418213 632.733948,501.092407   C632.778137,497.656647 633.071777,494.043854 634.191833,490.841522   C636.218567,485.046906 640.888489,482.642883 647.692871,482.994293   C652.868530,483.261627 657.332825,486.779755 658.778198,492.201630   C659.496826,494.897583 659.860229,497.769165 659.865417,500.562286   C659.944763,543.544861 659.939087,586.527588 659.951965,629.510315   C659.954590,638.310852 659.952393,647.111450 659.952393,656.729553   C664.958618,656.729553 670.699036,656.725830 676.439392,656.730286   C700.596375,656.748962 724.753296,656.767212 748.910278,656.794800   C751.242188,656.797424 753.576416,656.806580 755.905273,656.909485   C762.622864,657.206177 766.648254,660.480652 767.026733,665.889832   C767.749817,676.223633 765.455811,679.955322 757.421936,681.257263   C755.300476,681.601013 753.122986,681.735107 750.971252,681.735168   C726.480774,681.735352 701.990356,681.690918 676.999878,681.658142  z"
   id="path10" />
<path
   fill="#0CFE0C"
   opacity="1.000000"
   stroke="none"
   d=" M564.342529,952.335327   C533.938660,978.494812 486.688416,977.990662 457.479675,955.221863   C434.966919,937.672852 423.443085,914.387634 423.861816,885.305054   C424.373322,849.778381 446.384277,818.215149 480.244232,807.688171   C514.527527,797.029480 545.856262,803.144592 571.433350,829.130920   C607.297180,865.568542 600.364624,922.403137 564.342529,952.335327  M540.923523,813.454712   C523.892151,806.605225 506.313629,805.404114 488.627106,809.713440   C449.107330,819.342468 423.400238,855.636841 428.825684,897.815063   C434.854797,944.686279 479.697876,977.797668 530.156982,965.249390   C568.439392,955.729248 596.742554,919.434204 589.537048,873.660706   C585.071228,845.291077 568.131470,825.326111 540.923523,813.454712  z"
   id="path11" />
<path
   fill="#03FF02"
   opacity="1.000000"
   stroke="none"
   d=" M491.998688,431.195557   C480.024780,423.531982 482.344604,408.016693 491.759613,402.203674   C498.376831,398.118103 507.502777,399.074036 512.900391,404.394257   C518.541016,409.954071 519.742981,418.852753 515.739380,425.411865   C511.561279,432.256866 503.038361,435.416992 495.450867,432.880768   C494.362396,432.516968 493.362000,431.889679 491.998688,431.195557  z"
   id="path12" />
<path
   fill="#03FF03"
   opacity="1.000000"
   stroke="none"
   d=" M750.471191,428.517944   C745.081055,421.739685 744.347839,413.236908 748.384521,407.046143   C753.373535,399.394897 763.831360,397.137787 771.625122,402.030029   C779.164917,406.762909 781.704956,417.526642 777.105103,425.252350   C772.158630,433.560242 762.282471,436.106842 753.883667,431.188934   C752.750427,430.525360 751.776611,429.589539 750.471191,428.517944  z"
   id="path13" />
<path
   fill="#FFFFFF"
   opacity="1.000000"
   stroke="none"
   d=" M287.213074,305.556122   C287.049530,305.718323 286.877838,305.910919 286.706146,306.103516   C286.727478,305.952271 286.748840,305.800995 286.980591,305.648804   C287.190979,305.647858 287.204926,305.586487 287.213074,305.556122  z"
   id="path14" />


<path
   fill="#01FF01"
   opacity="1.000000"
   stroke="none"
   d=" M538.043640,948.170288   C498.692139,965.987976 454.585907,944.923157 444.706787,903.394348   C435.168823,863.299561 460.073242,826.977844 498.872772,821.396301   C536.562195,815.974548 567.493408,840.206360 574.666626,873.797363   C580.996582,903.439087 566.710693,932.216614 538.043640,948.170288  M515.534302,903.290649   C516.256836,902.899536 517.006592,902.551147 517.697876,902.110901   C524.213318,897.960876 527.054443,890.430115 524.857239,883.182495   C522.898254,876.720459 516.391235,871.994324 509.486328,872.018433   C501.929749,872.044800 496.185791,876.738403 493.610138,883.923645   C490.076996,893.780090 500.733459,908.672668 515.534302,903.290649  z"
   id="path17" />

</svg>
